<?xml version="1.0" encoding="utf-8"?>
<svg version="1.1" xmlns:xlink="http://www.w3.org/1999/xlink" width="34px" height="30px" xmlns="http://www.w3.org/2000/svg">
  <g transform="matrix(1 0 0 1 -503 -479 )">
    <path d="M 17.834821428571427 29.6484375  C 17.607142857142858 29.8828125  17.328869047619047 30  17 30  C 16.671130952380953 30  16.392857142857146 29.8828125  16.16517857142857 29.6484375  L 4.325892857142857 17.890625000000004  C 4.199404761904762 17.786458333333332  4.025483630952381 17.617187499999996  3.8041294642857144 17.382812499999996  C 3.582775297619048 17.148437499999996  3.2317708333333335 16.722005208333336  2.7511160714285716 16.103515625000004  C 2.2704613095238093 15.485026041666663  1.8404017857142858 14.850260416666664  1.4609375 14.199218749999998  C 1.0814732142857142 13.548177083333334  0.7431175595238096 12.760416666666666  0.4458705357142857 11.8359375  C 0.14862351190476192 10.91145833333333  0 10.013020833333332  0 9.140625  C 0 6.276041666666665  0.8031994047619047 4.036458333333331  2.4095982142857144 2.421874999999999  C 4.015997023809524 0.8072916666666663  6.235863095238095 0  9.069196428571429 0  C 9.853422619047619 0  10.653459821428571 0.13997395833333148  11.469308035714286 0.4199218750000011  C 12.28515625 0.6998697916666641  13.044084821428571 1.0774739583333315  13.74609375 1.552734375  C 14.44810267857143 2.027994791666665  15.052083333333336 2.4739583333333304  15.558035714285714 2.890624999999999  C 16.063988095238095 3.3072916666666643  16.544642857142858 3.75  17 4.21875  C 17.455357142857142 3.75  17.93601190476191 3.3072916666666643  18.441964285714285 2.890624999999999  C 18.947916666666668 2.4739583333333304  19.551897321428573 2.027994791666665  20.25390625 1.552734375  C 20.955915178571427 1.0774739583333315  21.71484375 0.6998697916666641  22.530691964285715 0.4199218750000011  C 23.346540178571427 0.13997395833333148  24.146577380952383 0  24.930803571428573 0  C 27.76413690476191 0  29.984002976190478 0.8072916666666663  31.590401785714285 2.421874999999999  C 33.196800595238095 4.036458333333331  34 6.276041666666665  34 9.140625  C 34 12.018229166666664  32.55171130952381 14.947916666666664  29.655133928571427 17.9296875  L 17.834821428571427 29.6484375  Z " fill-rule="nonzero" fill="#f1acbe" stroke="none" transform="matrix(1 0 0 1 503 479 )" />
  </g>
</svg>