<?xml version="1.0" encoding="utf-8"?>
<svg version="1.1" xmlns:xlink="http://www.w3.org/1999/xlink" width="34px" height="30px" xmlns="http://www.w3.org/2000/svg">
  <g transform="matrix(1 0 0 1 -726 -479 )">
    <path d="M 33.61892901618929 0.38762019230769384  C 33.872976338729764 0.5498798076923062  34 0.7692307692307665  34 1.0456730769230782  C 34 1.466346153846152  33.69655458696555 1.935096153846152  33.089663760896634 2.4519230769230784  L 19.70983810709838 13.846153846153847  L 19.70983810709838 27.692307692307693  L 26.484433374844333 27.692307692307693  C 26.85139061851391 27.692307692307693  27.1689497716895 27.806490384615383  27.437110834371108 28.03485576923077  C 27.705271897052718 28.263221153846153  27.839352428393525 28.533653846153847  27.839352428393525 28.846153846153847  C 27.839352428393525 29.158653846153847  27.705271897052718 29.429086538461537  27.437110834371108 29.657451923076923  C 27.1689497716895 29.88581730769231  26.85139061851391 30  26.484433374844333 30  L 7.515566625155666 30  C 7.148609381486094 30  6.831050228310503 29.88581730769231  6.562889165628891 29.657451923076923  C 6.294728102947281 29.429086538461537  6.160647571606476 29.158653846153847  6.160647571606476 28.846153846153847  C 6.160647571606476 28.533653846153847  6.294728102947281 28.263221153846153  6.562889165628891 28.03485576923077  C 6.831050228310503 27.806490384615383  7.148609381486094 27.692307692307693  7.515566625155666 27.692307692307693  L 14.290161892901619 27.692307692307693  L 14.290161892901619 13.846153846153847  L 0.9103362391033624 2.4519230769230784  C 0.3034454130344544 1.935096153846152  0 1.466346153846152  0 1.0456730769230782  C 0 0.7692307692307665  0.12702366127023662 0.5498798076923062  0.3810709838107098 0.38762019230769384  C 0.6351183063511834 0.2253605769230782  0.903279369032794 0.12019230769230393  1.1855541718555418 0.07211538461538436  C 1.46782897467829 0.024038461538461453  1.7712743877127444 0  2.095890410958904 0  L 31.904109589041095 0  C 32.228725612287256 0  32.532171025321716 0.024038461538461453  32.81444582814446 0.07211538461538436  C 33.096720630967205 0.12019230769230393  33.36488169364882 0.2253605769230782  33.61892901618929 0.38762019230769384  Z " fill-rule="nonzero" fill="#f1acbe" stroke="none" transform="matrix(1 0 0 1 726 479 )" />
  </g>
</svg>