<?xml version="1.0" encoding="utf-8"?>
<svg version="1.1" xmlns:xlink="http://www.w3.org/1999/xlink" width="16px" height="23px" xmlns="http://www.w3.org/2000/svg">
  <g transform="matrix(1 0 0 1 -1038 -657 )">
    <path d="M 7.4140625 18.4140625  C 7.8046875 18.0234375  8 17.552083333333332  8 17  C 8 16.625  7.895833333333334 16.265625  7.6875 15.921874999999998  C 7.677083333333334 15.911458333333332  7.596354166666667 15.794270833333332  7.4453125 15.570312499999998  C 7.294270833333334 15.346354166666668  7.161458333333334 15.1484375  7.046875 14.976562500000002  C 6.932291666666667 14.804687500000002  6.802083333333334 14.575520833333332  6.65625 14.2890625  C 6.510416666666667 14.002604166666668  6.401041666666667 13.739583333333334  6.328125 13.499999999999998  C 6.286458333333334 13.333333333333332  6.177083333333334 13.25  6 13.25  C 5.822916666666667 13.25  5.713541666666667 13.333333333333332  5.671875 13.499999999999998  C 5.598958333333334 13.739583333333334  5.489583333333334 14.002604166666668  5.34375 14.2890625  C 5.197916666666667 14.575520833333332  5.067708333333334 14.804687500000002  4.953125 14.976562500000002  C 4.838541666666667 15.1484375  4.705729166666667 15.346354166666668  4.5546875 15.570312499999998  C 4.403645833333334 15.794270833333332  4.322916666666667 15.911458333333332  4.3125 15.921874999999998  C 4.104166666666667 16.265625  4 16.625  4 17  C 4 17.552083333333332  4.1953125 18.0234375  4.5859375 18.4140625  C 4.9765625 18.8046875  5.447916666666667 19  6 19  C 6.552083333333334 19  7.0234375 18.8046875  7.4140625 18.4140625  Z M 14.734375 10.703125  C 15.578125 12.026041666666668  16 13.458333333333332  16 15  C 16 17.208333333333332  15.21875 19.09375  13.65625 20.65625  C 12.09375 22.21875  10.208333333333334 23  8 23  C 5.791666666666667 23  3.9062500000000004 22.21875  2.34375 20.65625  C 0.78125 19.09375  0 17.208333333333332  0 15  C 0 13.489583333333332  0.421875 12.057291666666666  1.265625 10.703125  C 1.328125 10.609375  1.6536458333333335 10.138020833333332  2.2421875 9.2890625  C 2.830729166666667 8.440104166666668  3.3567708333333335 7.653645833333332  3.8203125 6.929687499999999  C 4.283854166666667 6.205729166666663  4.802083333333334 5.278645833333332  5.375 4.148437499999999  C 5.947916666666668 3.0182291666666634  6.380208333333334 1.9687500000000004  6.671875 0.9999999999999993  C 6.765625 0.6874999999999992  6.942708333333334 0.44270833333333115  7.203125 0.2656250000000002  C 7.463541666666668 0.08854166666666419  7.729166666666668 0  8 0  C 8.270833333333334 0  8.5390625 0.08854166666666419  8.8046875 0.2656250000000002  C 9.0703125 0.44270833333333115  9.244791666666668 0.6874999999999992  9.328125 0.9999999999999993  C 9.619791666666668 1.9687500000000004  10.052083333333334 3.0182291666666634  10.625 4.148437499999999  C 11.197916666666668 5.278645833333332  11.716145833333334 6.205729166666663  12.1796875 6.929687499999999  C 12.643229166666668 7.653645833333332  13.169270833333334 8.440104166666668  13.7578125 9.2890625  C 14.346354166666668 10.138020833333332  14.671875 10.609375  14.734375 10.703125  Z " fill-rule="nonzero" fill="#facd91" stroke="none" transform="matrix(1 0 0 1 1038 657 )" />
  </g>
</svg>