<?xml version="1.0" encoding="utf-8"?>
<svg version="1.1" xmlns:xlink="http://www.w3.org/1999/xlink" width="32px" height="33px" xmlns="http://www.w3.org/2000/svg">
  <g>
    <path d="M 22.656696125084977 28.9287109375  C 24.53478359392704 28.0478515625  26.13369589848176 26.819661458333332  27.45343303874915 25.244140625  C 26.670292318150917 25.373046875  25.872648991615684 25.4375  25.06050305914344 25.4375  C 22.421028778608658 25.4375  19.97733967822343 24.79296875  17.729435757987762 23.503906249999996  C 15.481531837752097 22.214843749999996  13.70496261046907 20.460286458333336  12.39972807613868 18.240234375  C 11.094493541808294 16.020182291666664  10.441876274643102 13.606770833333332  10.4418762746431 11.000000000000002  C 10.441876274643102 8.25  11.196011783367325 5.693359374999999  12.704282800815772 3.3300781250000013  C 9.789259007477906 4.189453125  7.407205982324949 5.82942708333333  5.5581237253569 8.25  C 3.7090414683888513 10.670572916666663  2.7845003399048265 13.420572916666664  2.7845003399048265 16.5  C 2.7845003399048265 18.361979166666668  3.1543167912984362 20.1416015625  3.893949694085656 21.838867187500004  C 4.633582596872875 23.536132812499996  5.623385452073419 24.9970703125  6.8633582596872875 26.2216796875  C 8.103331067301156 27.4462890625  9.582596872875595 28.423828125  11.301155676410605 29.154296875  C 13.019714479945614 29.884765625  14.821663267618401 30.25  16.70700203942896 30.25  C 18.795377294357582 30.25  20.77860865624292 29.8095703125  22.656696125084977 28.9287109375  Z M 31.96736913664174 22.601562499999996  C 32.01812825742126 22.888020833333332  31.985497394063 23.160156250000004  31.86947654656696 23.417968750000004  C 30.50623158848856 26.325520833333332  28.4504871969182 28.6494140625  25.70224337185588 30.3896484375  C 22.953999546793565 32.1298828125  19.955585769317924 33  16.70700203942896 33  C 14.444595513256289 33  12.283707228642648 32.563151041666664  10.224337185588036 31.689453125  C 8.164967142533424 30.815755208333332  6.388397915250397 29.641276041666668  4.894629503738953 28.166015625  C 3.40086109222751 26.690755208333332  2.211647405393157 24.936197916666668  1.326988443235894 22.902343750000004  C 0.44232948107863146 20.86848958333333  0 18.734374999999996  0 16.5  C 0 14.30859375  0.4169499206888739 12.2138671875  1.2508497620666215 10.2158203125  C 2.084749603444369 8.2177734375  3.2159528665307042 6.488281250000001  4.644459551325629 5.02734375  C 6.072966236120553 3.5664062499999987  7.78064808520281 2.388346354166662  9.7675050985724 1.4931640625000013  C 11.75436211194199 0.5979817708333329  13.857239972807614 0.10742187500000122  16.076138681169272 0.02148437499999878  C 16.714253342397466 -0.0071614583333390325  17.156582823476096 0.2721354166666634  17.403127124405167 0.8593749999999988  C 17.664174031271244 1.4466145833333304  17.55540448674371 1.9622395833333304  17.07681849082257 2.4062499999999987  C 15.8295943802402 3.5234375000000013  14.876048039882168 4.823242187499999  14.21617946974847 6.305664062499999  C 13.556310899614775 7.788085937499999  13.226376614547927 9.352864583333332  13.226376614547927 11.000000000000002  C 13.226376614547927 13.119791666666666  13.755721731248585 15.074869791666664  14.814411964649898 16.865234374999996  C 15.873102198051214 18.655598958333336  17.30886018581464 20.073567708333336  19.121685927940177 21.119140624999996  C 20.934511670065717 22.16471354166666  22.914117380466806 22.6875  25.06050305914344 22.6875  C 26.771810559709948 22.6875  28.42510763652844 22.322265625000004  30.02039428959891 21.591796875  C 30.615001133016094 21.333984375  31.137094946748245 21.427083333333336  31.586675730795378 21.871093750000004  C 31.78971221391344 22.071614583333336  31.916610015862226 22.315104166666664  31.96736913664174 22.601562499999996  Z " fill-rule="nonzero" fill="#000000" stroke="none" />
  </g>
</svg>