<?xml version="1.0" encoding="utf-8"?>
<svg version="1.1" xmlns:xlink="http://www.w3.org/1999/xlink" width="35px" height="27px" xmlns="http://www.w3.org/2000/svg">
  <g transform="matrix(1 0 0 1 -31 -413 )">
    <path d="M 33.046875 10.374289772727273  C 33.7890625 9.875710227272727  34.44010416666667 9.319602272727273  35 8.705965909090908  L 35 23.93181818181818  C 35 24.77556818181818  34.69401041666667 25.49786931818182  34.08203125 26.098721590909093  C 33.47005208333334 26.69957386363636  32.73437500000001 27  31.875 27  L 3.125 27  C 2.265625 27  1.5299479166666667 26.69957386363636  0.9179687500000001 26.098721590909093  C 0.3059895833333335 25.49786931818182  0 24.77556818181818  0 23.93181818181818  L 0 8.705965909090908  C 0.5729166666666669 9.332386363636362  1.2304687500000002 9.888494318181815  1.97265625 10.374289772727273  C 6.686197916666668 13.519176136363637  9.921875 15.724431818181818  11.6796875 16.99005681818182  C 12.421875 17.526988636363637  13.024088541666668 17.94566761363636  13.486328125 18.24609375  C 13.948567708333334 18.546519886363633  14.563802083333334 18.853338068181817  15.33203125 19.166548295454547  C 16.100260416666668 19.479758522727273  16.81640625 19.636363636363637  17.48046875 19.636363636363637  L 17.5 19.636363636363637  L 17.51953125 19.636363636363637  C 18.183593750000004 19.636363636363637  18.899739583333332 19.479758522727273  19.66796875 19.166548295454547  C 20.43619791666667 18.853338068181817  21.05143229166667 18.546519886363633  21.513671875 18.24609375  C 21.975911458333332 17.94566761363636  22.578125 17.526988636363637  23.3203125 16.99005681818182  C 25.53385416666667 15.417613636363637  28.77604166666667 13.212357954545455  33.046875 10.374289772727273  Z M 34.072265625 0.9012784090909077  C 34.690755208333336 1.5021306818181794  35 2.2244318181818183  35 3.0681818181818183  C 35 4.0781249999999964  34.680989583333336 5.043323863636363  34.04296875 5.963778409090907  C 33.40494791666667 6.884232954545455  32.610677083333336 7.670454545454545  31.66015625 8.322443181818182  C 26.76432291666667 11.659090909090908  23.71744791666667 13.736505681818183  22.51953125 14.5546875  C 22.38932291666667 14.644176136363637  22.112630208333332 14.839133522727272  21.689453125 15.13955965909091  C 21.266276041666668 15.439985795454543  20.91471354166667 15.682883522727272  20.634765625 15.86825284090909  C 20.354817708333332 16.053622159090907  20.01627604166667 16.261363636363637  19.619140625 16.491477272727273  C 19.222005208333336 16.72159090909091  18.84765625 16.894176136363637  18.49609375 17.009232954545453  C 18.14453125 17.124289772727273  17.819010416666668 17.18181818181818  17.51953125 17.18181818181818  L 17.5 17.18181818181818  L 17.48046875 17.18181818181818  C 17.180989583333336 17.18181818181818  16.85546875 17.124289772727273  16.50390625 17.009232954545453  C 16.15234375 16.894176136363637  15.777994791666668 16.72159090909091  15.380859375 16.491477272727273  C 14.983723958333334 16.261363636363637  14.645182291666666 16.053622159090907  14.365234375 15.86825284090909  C 14.085286458333334 15.682883522727272  13.733723958333336 15.439985795454543  13.310546875 15.13955965909091  C 12.887369791666668 14.839133522727272  12.610677083333336 14.644176136363637  12.48046875 14.5546875  C 11.295572916666666 13.736505681818183  9.58984375 12.569957386363637  7.36328125 11.055042613636363  C 5.13671875 9.54012784090909  3.802083333333334 8.62926136363636  3.359375 8.322443181818182  C 2.5520833333333335 7.78551136363636  1.7903645833333337 7.047230113636363  1.0742187500000002 6.107599431818182  C 0.3580729166666668 5.16796875  0 4.295454545454545  0 3.4900568181818183  C 0 2.492897727272726  0.2701822916666668 1.6619318181818143  0.8105468750000001 0.9971590909090923  C 1.3509114583333337 0.3323863636363611  2.122395833333334 0  3.125 0  L 31.875 0  C 32.72135416666667 0  33.45377604166667 0.3004261363636329  34.072265625 0.9012784090909077  Z " fill-rule="nonzero" fill="#333333" stroke="none" fill-opacity="0.6980392156862745" transform="matrix(1 0 0 1 31 413 )" />
  </g>
</svg>