<?xml version="1.0" encoding="utf-8"?>
<svg version="1.1" xmlns:xlink="http://www.w3.org/1999/xlink" width="35px" height="28px" xmlns="http://www.w3.org/2000/svg">
  <g transform="matrix(1 0 0 1 -31 -257 )">
    <path d="M 29.969021065675342 15.99688230709275  C 29.983477901693515 16.025980774227072  29.990706319702603 16.069628474928553  30 16.127825409197193  L 30 26.60327357755261  C 29.990706319702603 26.98155365029878  29.853366377529948 27.308911405559886  29.578686493184634 27.58534684333593  C 29.304006608839327 27.861782281111978  28.978727798430405 28  28.602850061957867 28  L 20.275712515489467 28  L 20.275712515489467 19.619641465315667  L 14.724287484510532 19.619641465315667  L 14.724287484510532 28  L 6.397149938042131 28  C 6.0212722015696 28  5.695993391160678 27.861782281111978  5.421313506815365 27.58534684333593  C 5.146633622470055 27.308911405559886  5.0092936802973975 26.98155365029878  5 26.60327357755261  L 5 16.127825409197193  C 5.0092936802973975 16.113276175630034  5.012907889301942 16.091452325279292  5.020136307311028 16.062353858144974  C 5.027364725320116 16.033255391010652  5.03097893432466 16.011431540659913  5.03097893432466 15.99688230709275  L 17.5 5.652377240841776  L 29.969021065675342 15.99688230709275  Z M 34.97831474597274 14.109119251753704  C 34.992771581990915 14.305533904910366  34.94217265592731 14.4764873993245  34.8265179677819 14.621979734996104  L 33.482032218091696 16.236944660950897  C 33.366377529946305 16.367887763055343  33.21458075175548 16.44790854767472  33.026641883519204 16.477007014809043  L 32.96158612143742 16.477007014809043  C 32.773647253201155 16.477007014809043  32.62185047501033 16.42608469732398  32.50619578686493 16.324240062353855  L 17.5 3.7318784099766176  L 2.493804213135068 16.324240062353855  C 2.3203221809169765 16.44063393089114  2.146840148698885 16.4915562483762  1.973358116480793 16.477007014809043  C 1.7854192482445272 16.44790854767472  1.633622470053697 16.367887763055343  1.5179677819083024 16.236944660950897  L 0.1734820322180917 14.621979734996104  C 0.05782734407269726 14.4764873993245  0.007228418009087205 14.305533904910366  0.02168525402726146 14.109119251753704  C 0.03614209004543588 13.912704598597038  0.11565468814539452 13.756300337750064  0.26022304832713755 13.639906469212782  L 15.851920693928129 0.5674201091192526  C 16.31453944650971 0.18914003637308108  16.86389921520033 0  17.5 0  C 18.136100784799673 0  18.685460553490294 0.18914003637308108  19.14807930607187 0.5674201091192526  L 24.439281288723667 5.0194855806703025  L 24.439281288723667 0.7638347622759145  C 24.439281288723667 0.5601454923356686  24.50433705080545 0.392829306313327  24.63444857496902 0.26188620420888675  C 24.764560099132588 0.13094310210444338  24.930813713341593 0.06547155105222169  25.133209417596035 0.06547155105222169  L 29.29677819083024 0.06547155105222169  C 29.499173895084677 0.06547155105222169  29.66542750929368 0.13094310210444338  29.79553903345725 0.26188620420888675  C 29.925650557620816 0.392829306313327  29.990706319702603 0.5601454923356686  29.990706319702603 0.7638347622759145  L 29.990706319702603 9.66796570537802  L 34.73977695167286 13.639906469212782  C 34.88434531185461 13.756300337750064  34.96385790995457 13.912704598597038  34.97831474597274 14.109119251753704  Z " fill-rule="nonzero" fill="#3a426b" stroke="none" transform="matrix(1 0 0 1 31 257 )" />
  </g>
</svg>