<?xml version="1.0" encoding="utf-8"?>
<svg version="1.1" xmlns:xlink="http://www.w3.org/1999/xlink" width="35px" height="28px" xmlns="http://www.w3.org/2000/svg">
  <g transform="matrix(1 0 0 1 -31 -335 )">
    <path d="M 6.5625 14  L 10.9375 14  L 10.9375 23.333333333333336  L 6.5625 23.333333333333336  L 6.5625 14  Z M 13.125 4.666666666666666  L 17 4.666666666666666  L 17 23.333333333333336  L 13.125 23.333333333333336  L 13.125 4.666666666666666  Z M 2.1875 25.666666666666664  L 35 25.666666666666664  L 35 28  L 0 28  L 0 0  L 2.1875 0  L 2.1875 25.666666666666664  Z M 19 9.333333333333334  L 24 9.333333333333334  L 24 23.333333333333336  L 19 23.333333333333336  L 19 9.333333333333334  Z M 26 2.3333333333333344  L 30 2.3333333333333344  L 30 23.333333333333336  L 26 23.333333333333336  L 26 2.3333333333333344  Z " fill-rule="nonzero" fill="#000000" stroke="none" fill-opacity="0.1607843137254902" transform="matrix(1 0 0 1 31 335 )" />
  </g>
</svg>