<?xml version="1.0" encoding="utf-8"?>
<svg version="1.1" xmlns:xlink="http://www.w3.org/1999/xlink" width="40px" height="40px" xmlns="http://www.w3.org/2000/svg">
  <g transform="matrix(1 0 0 1 -1024 -780 )">
    <path d="M 32.838541666666664 22.83854166666667  C 33.16840277777778 22.508680555555554  33.333333333333336 22.118055555555554  33.333333333333336 21.66666666666667  L 33.333333333333336 18.333333333333336  C 33.333333333333336 17.881944444444443  33.16840277777778 17.491319444444443  32.838541666666664 17.161458333333336  C 32.50868055555556 16.83159722222222  32.11805555555556 16.666666666666664  31.666666666666664 16.666666666666664  L 23.333333333333336 16.666666666666664  L 23.333333333333336 8.333333333333336  C 23.333333333333336 7.881944444444442  23.168402777777782 7.491319444444442  22.838541666666664 7.161458333333335  C 22.508680555555557 6.831597222222219  22.118055555555557 6.666666666666665  21.666666666666664 6.666666666666665  L 18.333333333333332 6.666666666666665  C 17.881944444444446 6.666666666666665  17.491319444444446 6.831597222222219  17.161458333333332 7.161458333333335  C 16.83159722222222 7.491319444444442  16.666666666666668 7.881944444444442  16.666666666666668 8.333333333333336  L 16.666666666666668 16.666666666666664  L 8.333333333333334 16.666666666666664  C 7.8819444444444455 16.666666666666664  7.4913194444444455 16.83159722222222  7.161458333333334 17.161458333333336  C 6.831597222222223 17.491319444444443  6.666666666666666 17.881944444444443  6.666666666666666 18.333333333333336  L 6.666666666666666 21.66666666666667  C 6.666666666666666 22.118055555555554  6.831597222222223 22.508680555555554  7.161458333333334 22.83854166666667  C 7.4913194444444455 23.16840277777778  7.8819444444444455 23.33333333333333  8.333333333333334 23.33333333333333  L 16.666666666666668 23.33333333333333  L 16.666666666666668 31.666666666666664  C 16.666666666666668 32.11805555555556  16.83159722222222 32.50868055555556  17.161458333333332 32.838541666666664  C 17.491319444444446 33.16840277777778  17.881944444444446 33.333333333333336  18.333333333333332 33.333333333333336  L 21.666666666666664 33.333333333333336  C 22.118055555555557 33.333333333333336  22.508680555555557 33.16840277777778  22.838541666666664 32.838541666666664  C 23.168402777777782 32.50868055555556  23.333333333333336 32.11805555555556  23.333333333333336 31.666666666666664  L 23.333333333333336 23.33333333333333  L 31.666666666666664 23.33333333333333  C 32.11805555555556 23.33333333333333  32.50868055555556 23.16840277777778  32.838541666666664 22.83854166666667  Z M 37.799479166666664 2.200520833333335  C 39.26649305555556 3.6675347222222188  40 5.434027777777772  40 7.5  L 40 32.5  C 40 34.56597222222222  39.26649305555556 36.33246527777778  37.799479166666664 37.799479166666664  C 36.33246527777778 39.26649305555556  34.56597222222223 40  32.5 40  L 7.5 40  C 5.434027777777778 40  3.6675347222222228 39.26649305555556  2.2005208333333335 37.799479166666664  C 0.7335069444444443 36.33246527777778  0 34.56597222222222  0 32.5  L 0 7.5  C 0 5.434027777777772  0.7335069444444443 3.6675347222222188  2.2005208333333335 2.200520833333335  C 3.6675347222222228 0.733506944444442  5.434027777777778 0  7.5 0  L 32.5 0  C 34.56597222222223 0  36.33246527777778 0.733506944444442  37.799479166666664 2.200520833333335  Z " fill-rule="nonzero" fill="#000000" stroke="none" transform="matrix(1 0 0 1 1024 780 )" />
  </g>
</svg>