<?xml version="1.0" encoding="utf-8"?>
<svg version="1.1" xmlns:xlink="http://www.w3.org/1999/xlink" width="35px" height="28px" xmlns="http://www.w3.org/2000/svg">
  <g transform="matrix(1 0 0 1 -31 -808 )">
    <path d="M 14.241071428571429 25.6046875  C 14.226190476190476 25.684895833333336  14.241071428571429 25.783333333333335  14.285714285714286 25.900000000000002  C 14.285714285714286 25.958333333333336  14.293154761904763 26.104166666666664  14.308035714285714 26.337500000000002  C 14.322916666666668 26.570833333333333  14.326636904761905 26.764062499999998  14.319196428571429 26.9171875  C 14.311755952380954 27.0703125  14.289434523809526 27.241666666666667  14.252232142857142 27.431250000000002  C 14.215029761904763 27.620833333333337  14.140625 27.763020833333336  14.029017857142858 27.857812499999998  C 13.917410714285715 27.952604166666667  13.764880952380954 28  13.571428571428571 28  L 6.428571428571429 28  C 4.657738095238096 28  3.1436011904761907 27.383854166666666  1.8861607142857144 26.1515625  C 0.628720238095238 24.919270833333336  0 23.435416666666665  0 21.7  L 0 6.299999999999999  C 0 4.564583333333329  0.628720238095238 3.0807291666666656  1.8861607142857144 1.8484375000000006  C 3.1436011904761907 0.6161458333333294  4.657738095238096 0  6.428571428571429 0  L 13.571428571428571 0  C 13.764880952380954 0  13.932291666666668 0.0692708333333294  14.073660714285714 0.20781250000000062  C 14.215029761904763 0.34635416666666563  14.285714285714286 0.5104166666666656  14.285714285714286 0.7000000000000006  C 14.285714285714286 0.7583333333333306  14.293154761904763 0.904166666666665  14.308035714285714 1.1375000000000006  C 14.322916666666668 1.37083333333333  14.326636904761905 1.5640625000000012  14.319196428571429 1.7171874999999988  C 14.311755952380954 1.8703124999999994  14.289434523809526 2.0416666666666656  14.252232142857142 2.2312500000000006  C 14.215029761904763 2.4208333333333294  14.140625 2.5630208333333306  14.029017857142858 2.6578125000000012  C 13.917410714285715 2.7526041666666656  13.764880952380954 2.7999999999999994  13.571428571428571 2.7999999999999994  L 6.428571428571429 2.7999999999999994  C 5.446428571428572 2.7999999999999994  4.605654761904763 3.1427083333333288  3.90625 3.828125  C 3.2068452380952386 4.513541666666665  2.8571428571428568 5.337500000000001  3 6.299999999999999  L 3 21.7  C 2.8571428571428568 22.662499999999998  3.2068452380952386 23.486458333333328  3.90625 24.171875  C 4.605654761904763 24.857291666666665  5.446428571428572 25.2  6.428571428571429 25.2  L 12.857142857142858 25.2  L 13.102678571428571 25.2  L 13.392857142857142 25.2  C 13.392857142857142 25.2  13.47842261904762 25.207291666666663  13.649553571428571 25.221875  C 13.820684523809526 25.236458333333335  13.90625 25.258333333333333  13.90625 25.287499999999998  C 13.90625 25.316666666666663  13.96577380952381 25.356770833333336  14.084821428571427 25.407812500000002  C 14.20386904761905 25.458854166666665  14.255952380952381 25.524479166666666  14.241071428571429 25.6046875  Z M 34.575892857142854 13.015625  C 34.858630952380956 13.292708333333334  35 13.620833333333334  35 14  C 35 14.379166666666663  34.858630952380956 14.707291666666663  34.575892857142854 14.984375  L 22.433035714285715 26.884375000000002  C 22.15029761904762 27.161458333333336  21.815476190476193 27.3  21.42857142857143 27.3  C 21.04166666666667 27.3  20.70684523809524 27.161458333333336  20.424107142857142 26.884375000000002  C 20.14136904761905 26.607291666666665  20 26.279166666666665  20 25.900000000000002  L 20 19.599999999999998  L 10 19.599999999999998  C 9.613095238095237 19.599999999999998  9.27827380952381 19.461458333333333  8.995535714285715 19.184375  C 8.712797619047619 18.907291666666666  8.571428571428571 18.579166666666666  8.571428571428571 18.2  L 8.571428571428571 9.799999999999999  C 8.571428571428571 9.420833333333329  8.712797619047619 9.092708333333329  8.995535714285715 8.815624999999999  C 9.27827380952381 8.538541666666667  9.613095238095237 8.400000000000002  10 8.400000000000002  L 20 8.400000000000002  L 20 2.0999999999999988  C 20 1.7208333333333288  20.14136904761905 1.3927083333333288  20.424107142857142 1.1156249999999988  C 20.70684523809524 0.8385416666666656  21.04166666666667 0.7000000000000006  21.42857142857143 0.7000000000000006  C 21.815476190476193 0.7000000000000006  22.15029761904762 0.8385416666666656  22.433035714285715 1.1156249999999988  L 34.575892857142854 13.015625  Z " fill-rule="nonzero" fill="#d4d4d4" stroke="none" transform="matrix(1 0 0 1 31 808 )" />
  </g>
</svg>