<?xml version="1.0" encoding="utf-8"?>
<svg version="1.1" xmlns:xlink="http://www.w3.org/1999/xlink" width="72px" height="72px" xmlns="http://www.w3.org/2000/svg">
  <defs>
    <filter x="91px" y="66px" width="72px" height="72px" filterUnits="userSpaceOnUse" id="filter2776">
      <feOffset dx="1" dy="5" in="SourceAlpha" result="shadowOffsetInner" />
      <feGaussianBlur stdDeviation="5.5" in="shadowOffsetInner" result="shadowGaussian" />
      <feComposite in2="shadowGaussian" operator="atop" in="SourceAlpha" result="shadowComposite" />
      <feColorMatrix type="matrix" values="0 0 0 0 0  0 0 0 0 0  0 0 0 0 0  0 0 0 0.13333333333333333 0  " in="shadowComposite" />
    </filter>
    <g id="widget2777">
      <path d="M 43.89250814332247 31.673177083333336  C 45.18458197611292 28.678385416666664  45.83061889250815 25.694444444444443  45.83061889250815 22.721354166666668  C 45.83061889250815 21.766493055555554  45.75461454940283 20.53493923611111  45.60260586319218 19.026692708333332  C 45.450597176981546 17.518446180555554  45.25515743756787 16.471354166666668  45.016286644951144 15.885416666666668  C 44.7557003257329 15.234375  44.57111834961998 14.756944444444443  44.462540716612374 14.453125  C 44.35396308360478 14.149305555555552  44.25624321389794 13.753255208333332  44.16938110749186 13.264973958333332  C 44.08251900108578 12.776692708333332  44.039087947882734 12.250434027777773  44.039087947882734 11.686197916666668  C 44.039087947882734 11.187065972222216  44.09337676438654 10.443793402777773  44.20195439739414 9.456380208333332  C 44.310532030401745 8.468967013888884  44.36482084690554 7.736545138888884  44.36482084690554 7.259114583333331  C 44.36482084690554 6.456163194444442  44.25624321389794 5.859375  44.039087947882734 5.46875  C 43.95222584147666 5.447048611111111  43.811074918566774 5.436197916666669  43.615635179153095 5.436197916666669  C 43.20304017372422 5.436197916666669  42.57328990228013 5.485026041666669  41.726384364820845 5.582682291666669  C 40.87947882736157 5.680338541666669  40.23887079261673 5.729166666666669  39.80456026058632 5.729166666666669  C 38.501628664495115 5.729166666666669  36.590662323561354 5.46875  34.071661237785015 4.947916666666669  C 31.552660152008688 4.427083333333331  29.652551574375686 4.166666666666669  28.37133550488599 4.166666666666669  C 27.437567861020636 4.166666666666669  26.41150922909881 4.291449652777773  25.29315960912052 4.541015625  C 24.17480998914224 4.790581597222215  23.251900108577633 5.045572916666669  22.52442996742671 5.305989583333331  C 21.79695982627579 5.56640625  20.825190010857764 5.935329861111111  19.60912052117264 6.412760416666669  C 16.63409337676439 7.584635416666669  14.440825190010859 8.702256944444443  13.029315960912053 9.765625  C 10.944625407166123 11.349826388888884  9.212812160694899 13.40603298611111  7.833876221498372 15.934244791666668  C 6.4549402823018465 18.46245659722222  5.499457111834962 21.02322048611111  4.96742671009772 23.616536458333332  C 4.435396308360478 26.209852430555557  4.169381107491857 28.90625  4.169381107491857 31.705729166666664  C 4.169381107491857 32.57378472222222  4.305103148751358 33.87586805555555  4.576547231270358 35.611979166666664  C 4.84799131378936 37.34809027777778  4.9837133550488595 38.66102430555555  4.9837133550488595 39.55078125  C 4.9837133550488595 40.04991319444444  4.8642779587405 40.771484375  4.625407166123779 41.71549479166667  C 4.386536373507058 42.65950520833333  4.267100977198697 43.37022569444444  4.267100977198697 43.84765625  C 4.267100977198697 44.32508680555556  4.397394136807818 44.72113715277777  4.657980456026058 45.03580729166667  C 4.9185667752443 45.35047743055556  5.287730727470141 45.5078125  5.765472312703583 45.5078125  C 6.286644951140066 45.5078125  7.073832790445168 45.38845486111111  8.127035830618892 45.14973958333333  C 9.180238870792618 44.91102430555556  9.978284473398482 44.79166666666667  10.521172638436482 44.79166666666667  C 11.758957654723128 44.79166666666667  13.599348534201955 44.95985243055556  16.042345276872965 45.29622395833333  C 18.485342019543975 45.63259548611111  20.325732899022803 45.80078125  21.563517915309447 45.80078125  C 25.494028230184583 45.80078125  28.57763300760044 45.41015625  30.814332247557 44.62890625  C 33.615635179153095 43.65234375  36.17263843648209 41.99761284722223  38.48534201954397 39.66471354166667  C 40.79804560260587 37.33181423611111  42.60043431053204 34.66796875  43.89250814332247 31.673177083333336  Z M 49.70684039087948 18.212890625  C 49.90228013029316 19.916449652777775  50 21.397569444444443  50 22.65625  C 50 26.236979166666664  49.2399565689468 29.79058159722222  47.71986970684039 33.317057291666664  C 46.19978284473399 36.84353298611111  44.071661237785015 39.96853298611111  41.33550488599349 42.69205729166667  C 38.59934853420196 45.41558159722223  35.54831704668839 47.37413194444444  32.182410423452765 48.56770833333333  C 29.489685124864284 49.52256944444444  25.950054288816503 50  21.563517915309447 50  C 20.325732899022803 50  18.479913137893593 49.84266493055556  16.026058631921824 49.52799479166667  C 13.572204125950055 49.21332465277777  11.737242128121608 49.05598958333333  10.521172638436482 49.05598958333333  C 10 49.05598958333333  9.212812160694899 49.21332465277777  8.159609120521173 49.52799479166667  C 7.106406080347449 49.84266493055556  6.308360477741585 50  5.765472312703583 50  C 4.180238870792617 50  2.8393051031487517 49.39778645833333  1.7426710097719869 48.193359375  C 0.6460369163952225 46.98893229166667  0.09771986970684039 45.59461805555556  0.09771986970684039 44.01041666666667  C 0.09771986970684039 43.48958333333333  0.21715526601520083 42.75173611111111  0.4560260586319218 41.796875  C 0.6948968512486429 40.84201388888889  0.8143322475570033 40.11501736111111  0.8143322475570033 39.61588541666667  C 0.8143322475570033 38.74782986111111  0.6786102062975028 37.44032118055555  0.40716612377850164 35.693359375  C 0.13572204125950052 33.94639756944444  0 32.62803819444444  0 31.73828125  C 0 29.329427083333336  0.19543973941368079 26.969401041666664  0.5863192182410424 24.658203125  C 0.977198697068404 22.347005208333332  1.5689467969598265 20.07378472222222  2.3615635179153096 17.838541666666668  C 3.1541802388707927 15.60329861111111  4.245385450597177 13.498263888888884  5.635179153094462 11.5234375  C 7.0249728555917486 9.54861111111111  8.653637350705754 7.855902777777773  10.521172638436482 6.4453125  C 12.214983713355048 5.164930555555553  14.733984799131381 3.862847222222215  18.078175895765472 2.5390625  C 22.29098805646037 0.8463541666666685  25.722041259500543 0  28.37133550488599 0  C 29.674267100977197 0  31.579804560260587 0.2604166666666685  34.08794788273616 0.78125  C 36.59609120521173 1.3020833333333315  38.479913137893604 1.5625  39.73941368078176 1.5625  C 40.15200868621064 1.5625  40.77090119435397 1.5082465277777735  41.59609120521173 1.3997395833333315  C 42.421281216069495 1.291232638888884  43.051031487513576 1.2369791666666685  43.48534201954398 1.2369791666666685  C 45.244299674267104 1.2369791666666685  46.52551574375679 1.7849392361111105  47.328990228013026 2.880859375  C 48.132464712269275 3.976779513888884  48.534201954397396 5.436197916666669  48.534201954397396 7.259114583333331  C 48.534201954397396 7.758246527777773  48.4799131378936 8.49609375  48.37133550488599 9.47265625  C 48.2627578718784 10.44921875  48.20846905537459 11.187065972222216  48.20846905537459 11.686197916666668  C 48.20846905537459 11.968315972222216  48.23018458197612 12.239583333333332  48.27361563517915 12.5  C 48.3170466883822 12.760416666666668  48.355048859934854 12.939453125  48.387622149837135 13.037109375  C 48.420195439739416 13.134765625  48.501628664495115 13.35720486111111  48.63192182410423 13.704427083333332  C 48.762214983713356 14.051649305555552  48.84907709011944 14.268663194444443  48.89250814332248 14.35546875  C 49.2399565689468 15.223524305555552  49.5114006514658 16.509331597222214  49.70684039087948 18.212890625  Z " fill-rule="nonzero" fill="#facd91" stroke="none" transform="matrix(1 0 0 1 101 72 )" />
    </g>
  </defs>
  <g transform="matrix(1 0 0 1 -91 -66 )">
    <use xlink:href="#widget2777" filter="url(#filter2776)" />
    <use xlink:href="#widget2777" />
  </g>
</svg>