<?xml version="1.0" encoding="utf-8"?>
<svg version="1.1" xmlns:xlink="http://www.w3.org/1999/xlink" width="27px" height="25px" xmlns="http://www.w3.org/2000/svg">
  <g transform="matrix(1 0 0 1 -112 -85 )">
    <path d="M 26.46306818181818 9.588068181818182  C 26.821022727272727 9.919507575757573  27 10.321969696969695  27 10.795454545454545  L 27 14.204545454545453  C 27 14.678030303030305  26.821022727272727 15.080492424242422  26.46306818181818 15.411931818181818  C 26.105113636363637 15.74337121212121  25.670454545454547 15.909090909090908  25.159090909090907 15.909090909090908  L 17.18181818181818 15.909090909090908  L 17.18181818181818 23.295454545454547  C 17.18181818181818 23.768939393939394  17.00284090909091 24.171401515151516  16.644886363636363 24.50284090909091  C 16.286931818181824 24.834280303030305  15.852272727272728 25  15.340909090909092 25  L 11.65909090909091 25  C 11.147727272727273 25  10.713068181818183 24.834280303030305  10.355113636363637 24.50284090909091  C 9.997159090909092 24.171401515151516  9.818181818181818 23.768939393939394  9.818181818181818 23.295454545454547  L 9.818181818181818 15.909090909090908  L 1.8409090909090908 15.909090909090908  C 1.3295454545454546 15.909090909090908  0.8948863636363638 15.74337121212121  0.5369318181818181 15.411931818181818  C 0.1789772727272727 15.080492424242422  0 14.678030303030305  0 14.204545454545453  L 0 10.795454545454545  C 0 10.321969696969695  0.1789772727272727 9.919507575757573  0.5369318181818181 9.588068181818182  C 0.8948863636363638 9.256628787878787  1.3295454545454546 9.090909090909092  1.8409090909090908 9.090909090909092  L 9.818181818181818 9.090909090909092  L 9.818181818181818 1.704545454545456  C 9.818181818181818 1.231060606060605  9.997159090909092 0.8285984848484834  10.355113636363637 0.49715909090909116  C 10.713068181818183 0.16571969696969613  11.147727272727273 0  11.65909090909091 0  L 15.340909090909092 0  C 15.852272727272728 0  16.286931818181824 0.16571969696969613  16.644886363636363 0.49715909090909116  C 17.00284090909091 0.8285984848484834  17.18181818181818 1.231060606060605  17.18181818181818 1.704545454545456  L 17.18181818181818 9.090909090909092  L 25.159090909090907 9.090909090909092  C 25.670454545454547 9.090909090909092  26.105113636363637 9.256628787878787  26.46306818181818 9.588068181818182  Z " fill-rule="nonzero" fill="#f1acbe" stroke="none" transform="matrix(1 0 0 1 112 85 )" />
  </g>
</svg>