<?xml version="1.0" encoding="utf-8"?>
<svg version="1.1" xmlns:xlink="http://www.w3.org/1999/xlink" width="39px" height="33px" xmlns="http://www.w3.org/2000/svg">
  <g transform="matrix(1 0 0 1 -1115 -89 )">
    <path d="M 16.6875 16.3125  C 17.5625 17.187499999999996  18 18.25  18 19.499999999999996  L 18 28.5  C 18 29.75  17.5625 30.812500000000004  16.6875 31.6875  C 15.812500000000002 32.5625  14.750000000000002 33  13.5 33  L 4.5 33  C 3.2500000000000004 33  2.1875000000000004 32.5625  1.3125 31.6875  C 0.43749999999999994 30.812500000000004  0 29.75  0 28.5  L 0 12  C 0 10.374999999999998  0.31640625 8.824218750000002  0.94921875 7.34765625  C 1.58203125 5.871093749999998  2.4375 4.593749999999998  3.515625 3.515625000000001  C 4.593750000000001 2.4374999999999996  5.87109375 1.5820312500000009  7.34765625 0.9492187500000013  C 8.824218750000002 0.31640625000000167  10.375000000000002 0  12 0  L 13.5 0  C 13.90625 0  14.2578125 0.1484374999999969  14.5546875 0.44531250000000167  C 14.851562500000002 0.7421874999999954  15 1.0937499999999982  15 1.4999999999999987  L 15 4.5  C 15 4.9062499999999964  14.851562500000002 5.257812499999999  14.5546875 5.5546875  C 14.2578125 5.851562499999998  13.90625 5.999999999999998  13.5 5.999999999999998  L 12 5.999999999999998  C 10.34375 5.999999999999998  8.9296875 6.5859375  7.757812499999999 7.757812500000001  C 6.5859375 8.929687500000002  6 10.343749999999996  6 12  L 6 12.75  C 6 13.375  6.218750000000001 13.90625  6.65625 14.343750000000002  C 7.093750000000001 14.781250000000002  7.625000000000001 15.000000000000002  8.25 15.000000000000002  L 13.5 15.000000000000002  C 14.750000000000002 15.000000000000002  15.812500000000002 15.437500000000004  16.6875 16.3125  Z M 37.6875 16.3125  C 38.5625 17.187499999999996  39 18.25  39 19.499999999999996  L 39 28.5  C 39 29.75  38.5625 30.812500000000004  37.6875 31.6875  C 36.8125 32.5625  35.75 33  34.5 33  L 25.5 33  C 24.25 33  23.187500000000004 32.5625  22.3125 31.6875  C 21.4375 30.812500000000004  21 29.75  21 28.5  L 21 12  C 21 10.374999999999998  21.31640625 8.824218750000002  21.94921875 7.34765625  C 22.58203125 5.871093749999998  23.4375 4.593749999999998  24.515625 3.515625000000001  C 25.59375 2.4374999999999996  26.87109375 1.5820312500000009  28.34765625 0.9492187500000013  C 29.82421875 0.31640625000000167  31.375 0  33 0  L 34.5 0  C 34.90625 0  35.2578125 0.1484374999999969  35.5546875 0.44531250000000167  C 35.8515625 0.7421874999999954  36 1.0937499999999982  36 1.4999999999999987  L 36 4.5  C 36 4.9062499999999964  35.8515625 5.257812499999999  35.5546875 5.5546875  C 35.2578125 5.851562499999998  34.90625 5.999999999999998  34.5 5.999999999999998  L 33 5.999999999999998  C 31.343750000000007 5.999999999999998  29.9296875 6.5859375  28.7578125 7.757812500000001  C 27.5859375 8.929687500000002  27 10.343749999999996  27 12  L 27 12.75  C 27 13.375  27.218750000000004 13.90625  27.65625 14.343750000000002  C 28.09375 14.781250000000002  28.625000000000004 15.000000000000002  29.25 15.000000000000002  L 34.5 15.000000000000002  C 35.75 15.000000000000002  36.8125 15.437500000000004  37.6875 16.3125  Z " fill-rule="nonzero" fill="#000000" stroke="none" transform="matrix(1 0 0 1 1115 89 )" />
  </g>
</svg>