<?xml version="1.0" encoding="utf-8"?>
<svg version="1.1" xmlns:xlink="http://www.w3.org/1999/xlink" width="34px" height="34px" xmlns="http://www.w3.org/2000/svg">
  <defs>
    <mask fill="white" id="clip2780">
      <path d="M 32.41076487252125 0  C 33.08498583569405 0  33.55854579792257 0.3139204545454559  33.8314447592068 0.941761363636364  C 34.10434372049103 1.6017992424242389  33.99197355996223 2.1652462121212093  33.494334277620396 2.632102272727272  L 21 14.53693181818182  L 21 32.45454545454545  C 21.623229461756374 33.13068181818182  21.310198300283286 33.605587121212125  20.684135977337114 33.87926136363637  C 20.475448536355053 33.95975378787879  20.274787535410766 34  20.08215297450425 34  C 19.64872521246459 34  19.287535410764875 33.8470643939394  18.9985835694051 33.54119318181818  L 12.8342776203966 27.359375  C 12.529272898961285 27.053503787878785  12.376770538243626 26.691287878787875  13 26.272727272727273  L 13 14.53693181818182  L 0.5056657223796034 2.632102272727272  C 0.008026440037771476 2.1652462121212093  -0.10434372049102929 1.6017992424242389  0.16855524079320114 0.941761363636364  C 0.4414542020774316 0.3139204545454559  0.915014164305949 0  1.5892351274787535 0  L 32.41076487252125 0  Z " fill-rule="evenodd" />
    </mask>
  </defs>
  <g transform="matrix(1 0 0 1 -864 -579 )">
    <path d="M 32.41076487252125 0  C 33.08498583569405 0  33.55854579792257 0.3139204545454559  33.8314447592068 0.941761363636364  C 34.10434372049103 1.6017992424242389  33.99197355996223 2.1652462121212093  33.494334277620396 2.632102272727272  L 21 14.53693181818182  L 21 32.45454545454545  C 21.623229461756374 33.13068181818182  21.310198300283286 33.605587121212125  20.684135977337114 33.87926136363637  C 20.475448536355053 33.95975378787879  20.274787535410766 34  20.08215297450425 34  C 19.64872521246459 34  19.287535410764875 33.8470643939394  18.9985835694051 33.54119318181818  L 12.8342776203966 27.359375  C 12.529272898961285 27.053503787878785  12.376770538243626 26.691287878787875  13 26.272727272727273  L 13 14.53693181818182  L 0.5056657223796034 2.632102272727272  C 0.008026440037771476 2.1652462121212093  -0.10434372049102929 1.6017992424242389  0.16855524079320114 0.941761363636364  C 0.4414542020774316 0.3139204545454559  0.915014164305949 0  1.5892351274787535 0  L 32.41076487252125 0  Z " fill-rule="nonzero" fill="#333333" stroke="none" transform="matrix(1 0 0 1 864 579 )" />
    <path d="M 32.41076487252125 0  C 33.08498583569405 0  33.55854579792257 0.3139204545454559  33.8314447592068 0.941761363636364  C 34.10434372049103 1.6017992424242389  33.99197355996223 2.1652462121212093  33.494334277620396 2.632102272727272  L 21 14.53693181818182  L 21 32.45454545454545  C 21.623229461756374 33.13068181818182  21.310198300283286 33.605587121212125  20.684135977337114 33.87926136363637  C 20.475448536355053 33.95975378787879  20.274787535410766 34  20.08215297450425 34  C 19.64872521246459 34  19.287535410764875 33.8470643939394  18.9985835694051 33.54119318181818  L 12.8342776203966 27.359375  C 12.529272898961285 27.053503787878785  12.376770538243626 26.691287878787875  13 26.272727272727273  L 13 14.53693181818182  L 0.5056657223796034 2.632102272727272  C 0.008026440037771476 2.1652462121212093  -0.10434372049102929 1.6017992424242389  0.16855524079320114 0.941761363636364  C 0.4414542020774316 0.3139204545454559  0.915014164305949 0  1.5892351274787535 0  L 32.41076487252125 0  Z " stroke-width="2" stroke="#ec808d" fill="none" transform="matrix(1 0 0 1 864 579 )" mask="url(#clip2780)" />
  </g>
</svg>