<?xml version="1.0" encoding="utf-8"?>
<svg version="1.1" xmlns:xlink="http://www.w3.org/1999/xlink" width="36px" height="28px" xmlns="http://www.w3.org/2000/svg">
  <g transform="matrix(1 0 0 1 -564 -51 )">
    <path d="M 16.789237668161434 21  L 17.919282511210763 21  L 20.260089686098652 18.693181818181817  L 17.192825112107624 15.670454545454543  L 14.852017937219731 17.977272727272727  L 14.852017937219731 19.090909090909093  L 16.789237668161434 19.090909090909093  L 16.789237668161434 21  Z M 26.7780269058296 7.338068181818182  C 27.006726457399107 7.112689393939391  27.013452914798208 6.893939393939391  26.798206278026907 6.681818181818182  C 26.582959641255606 6.469696969696967  26.360986547085204 6.476325757575755  26.132286995515692 6.701704545454547  L 19.069506726457398 13.661931818181818  C 18.840807174887892 13.887310606060606  18.83408071748879 14.106060606060602  19.04932735426009 14.318181818181818  C 19.26457399103139 14.53030303030303  19.486547085201796 14.523674242424239  19.7152466367713 14.298295454545457  L 26.7780269058296 7.338068181818182  Z M 28.008968609865473 17.917613636363637  C 28.2780269058296 18.02367424242424  28.412556053811656 18.215909090909093  28.412556053811656 18.494318181818183  L 28.412556053811656 22.272727272727273  C 28.412556053811656 23.85037878787879  27.844170403587448 25.19933712121212  26.70739910313901 26.319602272727273  C 25.570627802690588 27.439867424242422  24.201793721973097 28  22.60089686098655 28  L 5.811659192825112 28  C 4.210762331838565 28  2.841928251121076 27.439867424242422  1.7051569506726456 26.319602272727273  C 0.5683856502242152 25.19933712121212  0 23.85037878787879  0 22.272727272727273  L 0 5.727272727272728  C 0 4.149621212121209  0.5683856502242152 2.8006628787878776  1.7051569506726456 1.6803977272727284  C 2.841928251121076 0.560132575757573  4.210762331838565 0  5.811659192825112 0  L 22.60089686098655 0  C 23.448430493273545 0  24.23542600896861 0.16571969696969546  24.96188340807175 0.4971590909090895  C 25.163677130044842 0.5899621212121193  25.2847533632287 0.7424242424242418  25.32511210762332 0.9545454545454537  C 25.365470852017935 1.1799242424242418  25.304932735426007 1.3721590909090895  25.143497757847534 1.53125  L 24.15470852017937 2.505681818181818  C 23.966367713004484 2.6912878787878776  23.751121076233186 2.744318181818182  23.508968609865473 2.6647727272727284  C 23.199551569506728 2.5852272727272716  22.896860986547086 2.5454545454545463  22.60089686098655 3  L 5.811659192825112 3  C 4.923766816143498 2.5454545454545463  4.163677130044844 2.857007575757573  3.5313901345291483 3.480113636363636  C 2.8991031390134534 4.1032196969696955  2.5829596412556053 4.852272727272728  3 5.727272727272728  L 3 22.272727272727273  C 2.5829596412556053 23.147727272727273  2.8991031390134534 23.896780303030297  3.5313901345291483 24.519886363636363  C 4.163677130044844 25.142992424242422  4.923766816143498 25.454545454545453  5.811659192825112 25  L 22.60089686098655 25  C 23.48878923766816 25.454545454545453  24.248878923766817 25.142992424242422  24.881165919282513 24.519886363636363  C 25.513452914798208 23.896780303030297  25.829596412556054 23.147727272727273  25.829596412556054 22.272727272727273  L 25.829596412556054 19.767045454545457  C 25.829596412556054 19.59469696969697  25.890134529147986 19.448863636363637  26.01121076233184 19.329545454545457  L 27.30269058295964 18.056818181818183  C 27.504484304932735 17.857954545454543  27.739910313901348 17.81155303030303  28.008968609865473 17.917613636363637  Z M 12.914798206278027 17.181818181818183  L 26.475336322869957 3.818181818181818  L 32.28699551569507 9.545454545454547  L 18.726457399103136 22.909090909090907  L 12.914798206278027 22.909090909090907  L 12.914798206278027 17.181818181818183  Z M 36 5.09090909090909  C 36 5.621212121212119  35.81165919282511 6.0719696969696955  35.43497757847533 6.443181818181818  L 33.57847533632287 8.272727272727272  L 27.766816143497756 2.5454545454545463  L 29.623318385650226 0.7159090909090895  C 30 0.34469696969696706  30.457399103139014 0.1590909090909105  30.995515695067265 0.1590909090909105  C 31.533632286995516 0.1590909090909105  31.99103139013453 0.34469696969696706  32.36771300448431 0.7159090909090895  L 35.43497757847533 3.738636363636364  C 35.81165919282511 4.109848484848481  36 4.56060606060606  36 5.09090909090909  Z " fill-rule="nonzero" fill="#3a426b" stroke="none" transform="matrix(1 0 0 1 564 51 )" />
  </g>
</svg>