<?xml version="1.0" encoding="utf-8"?>
<svg version="1.1" xmlns:xlink="http://www.w3.org/1999/xlink" width="60px" height="60px" xmlns="http://www.w3.org/2000/svg">
  <defs>
    <filter x="942px" y="467px" width="60px" height="60px" filterUnits="userSpaceOnUse" id="filter2795">
      <feOffset dx="5" dy="5" in="SourceAlpha" result="shadowOffsetInner" />
      <feGaussianBlur stdDeviation="2.5" in="shadowOffsetInner" result="shadowGaussian" />
      <feComposite in2="shadowGaussian" operator="atop" in="SourceAlpha" result="shadowComposite" />
      <feColorMatrix type="matrix" values="0 0 0 0 0  0 0 0 0 0  0 0 0 0 0  0 0 0 0.08235294117647059 0  " in="shadowComposite" />
    </filter>
    <g id="widget2796">
      <path d="M 28.873697916666668 41.37369791666667  C 29.069010416666668 41.17838541666667  29.166666666666668 40.92881944444444  29.166666666666668 40.625  L 29.166666666666668 34.375  C 29.166666666666668 34.07118055555555  29.069010416666668 33.821614583333336  28.873697916666668 33.626302083333336  C 28.678385416666668 33.430989583333336  28.428819444444446 33.333333333333336  28.125 33.333333333333336  L 21.875 33.333333333333336  C 21.571180555555557 33.333333333333336  21.321614583333336 33.430989583333336  21.126302083333336 33.626302083333336  C 20.930989583333336 33.821614583333336  20.833333333333336 34.07118055555555  20.833333333333336 34.375  L 20.833333333333336 40.625  C 20.833333333333336 40.92881944444444  20.930989583333336 41.17838541666667  21.126302083333336 41.37369791666667  C 21.321614583333336 41.56901041666667  21.571180555555557 41.66666666666667  21.875 41.66666666666667  L 28.125 41.66666666666667  C 28.428819444444446 41.66666666666667  28.678385416666668 41.56901041666667  28.873697916666668 41.37369791666667  Z M 37.09309895833333 21.38671875  C 37.36436631944445 20.58376736111111  37.5 19.70486111111111  37.5 18.75  C 37.5 16.840277777777775  36.89778645833333 15.071614583333332  35.693359375 13.444010416666668  C 34.48893229166667 11.81640625  32.986111111111114 10.557725694444443  31.184895833333332 9.66796875  C 29.383680555555557 8.778211805555552  27.5390625 8.333333333333332  25.651041666666668 8.333333333333332  C 20.377604166666664 8.333333333333332  16.35199652777778 10.64453125  13.57421875 15.266927083333332  C 13.248697916666668 15.787760416666668  13.335503472222223 16.243489583333332  13.834635416666666 16.634114583333332  L 18.131510416666664 19.889322916666668  C 18.283420138888893 20.01953125  18.489583333333336 20.084635416666668  18.75 20.084635416666668  C 19.097222222222225 20.084635416666668  19.368489583333336 19.954427083333332  19.563802083333336 19.694010416666668  C 20.713975694444446 18.21831597222222  21.647135416666664 17.220052083333332  22.36328125 16.69921875  C 23.101128472222225 16.178385416666668  24.034288194444446 15.91796875  25.162760416666668 15.91796875  C 26.204427083333332 15.91796875  27.132161458333332 16.200086805555554  27.945963541666668 16.764322916666668  C 28.759765625 17.328559027777775  29.166666666666668 17.968749999999993  29.166666666666668 18.684895833333332  C 29.166666666666668 19.50954861111111  28.94965277777778 20.17144097222222  28.515625 20.670572916666668  C 28.081597222222225 21.16970486111111  27.34375 21.65798611111111  26.302083333333332 22.135416666666668  C 24.934895833333336 22.743055555555554  23.681640625 23.681640625  22.542317708333336 24.951171875  C 21.402994791666664 26.220703125  20.833333333333336 27.58246527777778  20.833333333333336 29.036458333333336  L 20.833333333333336 30.208333333333336  C 20.833333333333336 30.51215277777778  20.930989583333336 30.76171875  21.126302083333336 30.95703125  C 21.321614583333336 31.15234375  21.571180555555557 31.25  21.875 31.25  L 28.125 31.25  C 28.428819444444446 31.25  28.678385416666668 31.15234375  28.873697916666668 30.95703125  C 29.069010416666668 30.76171875  29.166666666666668 30.51215277777778  29.166666666666668 30.208333333333336  C 29.166666666666668 29.796006944444443  29.399956597222225 29.258897569444443  29.866536458333332 28.597005208333336  C 30.333116319444446 27.93511284722222  30.924479166666668 27.39800347222222  31.640625 26.985677083333336  C 32.33506944444445 26.595052083333336  32.86675347222223 26.285807291666664  33.23567708333333 26.057942708333336  C 33.60460069444445 25.830078125  34.10373263888889 25.450303819444443  34.73307291666667 24.918619791666668  C 35.36241319444445 24.38693576388889  35.84526909722223 23.866102430555554  36.181640625 23.356119791666668  C 36.518012152777786 22.846137152777775  36.82183159722223 22.18967013888889  37.09309895833333 21.38671875  Z M 46.64713541666667 12.451171875  C 48.882378472222214 16.281467013888886  50 20.464409722222214  50 25  C 50 29.53559027777778  48.882378472222214 33.71853298611111  46.64713541666667 37.548828125  C 44.411892361111114 41.37912326388889  41.37912326388889 44.41189236111111  37.548828125 46.64713541666667  C 33.718532986111114 48.88237847222223  29.53559027777778 50  25 50  C 20.464409722222225 50  16.28146701388889 48.88237847222223  12.451171875 46.64713541666667  C 8.620876736111112 44.41189236111111  5.588107638888889 41.37912326388889  3.3528645833333335 37.548828125  C 1.1176215277777777 33.71853298611111  0 29.53559027777778  0 25  C 0 20.464409722222214  1.1176215277777777 16.281467013888886  3.3528645833333335 12.451171875  C 5.588107638888889 8.62087673611111  8.620876736111112 5.588107638888884  12.451171875 3.3528645833333313  C 16.28146701388889 1.1176215277777735  20.464409722222225 0  25 0  C 29.53559027777778 0  33.718532986111114 1.1176215277777735  37.548828125 3.3528645833333313  C 41.37912326388889 5.588107638888884  44.411892361111114 8.62087673611111  46.64713541666667 12.451171875  Z " fill-rule="nonzero" fill="#333333" stroke="none" transform="matrix(1 0 0 1 942 467 )" />
    </g>
  </defs>
  <g transform="matrix(1 0 0 1 -942 -467 )">
    <use xlink:href="#widget2796" filter="url(#filter2795)" />
    <use xlink:href="#widget2796" />
  </g>
</svg>